<?xml version="1.0" encoding="UTF-8" standalone="no"?>
<!DOCTYPE svg PUBLIC "-//W3C//DTD SVG 1.1//EN"
 "http://www.w3.org/Graphics/SVG/1.1/DTD/svg11.dtd">
<!-- Generated by graphviz version 9.0.0 (20230911.1827)
 -->
<!-- Pages: 1 -->
<svg width="436pt" height="292pt"
 viewBox="0.00 0.00 436.00 291.88" xmlns="http://www.w3.org/2000/svg" xmlns:xlink="http://www.w3.org/1999/xlink">
<g id="graph0" class="graph" transform="scale(1 1) rotate(0) translate(4 287.88)">
<polygon fill="white" stroke="none" points="-4,4 -4,-287.88 432,-287.88 432,4 -4,4"/>
<!-- Fruitsoort -->
<g id="node1" class="node">
<title>Fruitsoort</title>
<polygon fill="none" stroke="black" points="8,-243.38 8,-272.88 115.5,-272.88 115.5,-243.38 8,-243.38"/>
<text text-anchor="start" x="16.75" y="-253.68" font-family="Helvetica,sans-Serif" font-weight="bold" font-size="16.00">Fruitsoort</text>
<polygon fill="none" stroke="black" points="8,-216.12 8,-243.38 115.5,-243.38 115.5,-216.12 8,-216.12"/>
<text text-anchor="start" x="13" y="-226.07" font-family="Helvetica,sans-Serif" text-decoration="underline" font-size="14.00">id</text>
<polygon fill="none" stroke="black" points="8,-188.88 8,-216.12 115.5,-216.12 115.5,-188.88 8,-188.88"/>
<text text-anchor="start" x="13" y="-197.82" font-family="Helvetica,sans-Serif" font-size="14.00">naam</text>
<polygon fill="none" stroke="black" points="8,-161.62 8,-188.88 115.5,-188.88 115.5,-161.62 8,-161.62"/>
<text text-anchor="start" x="13" y="-170.57" font-family="Helvetica,sans-Serif" font-size="14.00">variëteit</text>
<polygon fill="none" stroke="black" points="8,-134.38 8,-161.62 115.5,-161.62 115.5,-134.38 8,-134.38"/>
<text text-anchor="start" x="13" y="-143.32" font-family="Helvetica,sans-Serif" font-size="14.00">prijsper100kg</text>
</g>
<!-- Oogstplaats -->
<g id="node3" class="node">
<title>Oogstplaats</title>
<polygon fill="none" stroke="black" points="228.12,-250.38 228.12,-279.88 396.38,-279.88 396.38,-250.38 228.12,-250.38"/>
<text text-anchor="start" x="258.25" y="-260.68" font-family="Helvetica,sans-Serif" font-weight="bold" font-size="16.00">Oogstplaats</text>
<polygon fill="none" stroke="black" points="228.12,-223.12 228.12,-250.38 396.38,-250.38 396.38,-223.12 228.12,-223.12"/>
<text text-anchor="start" x="233.12" y="-233.07" font-family="Helvetica,sans-Serif" text-decoration="underline" font-size="14.00">id</text>
<polygon fill="none" stroke="black" points="228.12,-195.88 228.12,-223.12 396.38,-223.12 396.38,-195.88 228.12,-195.88"/>
<text text-anchor="start" x="233.12" y="-204.82" font-family="Helvetica,sans-Serif" font-size="14.00">naam</text>
<polygon fill="none" stroke="black" points="228.12,-168.62 228.12,-195.88 396.38,-195.88 396.38,-168.62 228.12,-168.62"/>
<text text-anchor="start" x="233.12" y="-177.57" font-family="Helvetica,sans-Serif" font-size="14.00">geolocatie</text>
<polygon fill="none" stroke="black" points="228.12,-141.38 228.12,-168.62 396.38,-168.62 396.38,-141.38 228.12,-141.38"/>
<text text-anchor="start" x="233.12" y="-150.32" font-family="Helvetica,sans-Serif" font-size="14.00">oppervlakteInHectaren</text>
</g>
<!-- Fruitsoort&#45;&#45;Oogstplaats -->
<g id="edge1" class="edge">
<title>Fruitsoort&#45;&#45;Oogstplaats</title>
<path fill="none" stroke="#7f7f7f" stroke-dasharray="5,2" d="M123.22,-205.33C152.39,-206.15 187.98,-207.15 220.32,-208.06"/>
<text text-anchor="start" x="211.32" y="-194.76" font-family="Times,serif" font-size="14.00">1</text>
<text text-anchor="start" x="123.22" y="-192.03" font-family="Times,serif" font-size="14.00">0..N</text>
</g>
<!-- HoeveelheidPerKoelcel -->
<g id="node4" class="node">
<title>HoeveelheidPerKoelcel</title>
<polygon fill="none" stroke="black" points="204.5,-85.75 204.5,-115.25 420,-115.25 420,-85.75 204.5,-85.75"/>
<text text-anchor="start" x="209.5" y="-96.05" font-family="Helvetica,sans-Serif" font-weight="bold" font-size="16.00">HoeveelheidPerKoelcel</text>
<polygon fill="none" stroke="black" points="204.5,-58.5 204.5,-85.75 420,-85.75 420,-58.5 204.5,-58.5"/>
<text text-anchor="start" x="209.5" y="-68.45" font-family="Helvetica,sans-Serif" font-style="italic" text-decoration="underline" font-size="14.00">FruitID</text>
<polygon fill="none" stroke="black" points="204.5,-31.25 204.5,-58.5 420,-58.5 420,-31.25 204.5,-31.25"/>
<text text-anchor="start" x="209.5" y="-41.2" font-family="Helvetica,sans-Serif" font-style="italic" text-decoration="underline" font-size="14.00">KoelcelID</text>
<polygon fill="none" stroke="black" points="204.5,-4 204.5,-31.25 420,-31.25 420,-4 204.5,-4"/>
<text text-anchor="start" x="209.5" y="-12.95" font-family="Helvetica,sans-Serif" font-size="14.00">hoeveelheid</text>
</g>
<!-- Fruitsoort&#45;&#45;HoeveelheidPerKoelcel -->
<g id="edge3" class="edge">
<title>Fruitsoort&#45;&#45;HoeveelheidPerKoelcel</title>
<path fill="none" stroke="#7f7f7f" stroke-dasharray="5,2" d="M123.22,-168.58C148.94,-153.68 179.66,-135.88 208.73,-119.03"/>
<text text-anchor="start" x="178.73" y="-122.98" font-family="Times,serif" font-size="14.00">0..N</text>
<text text-anchor="start" x="123.22" y="-155.28" font-family="Times,serif" font-size="14.00">1</text>
</g>
<!-- Koelcel -->
<g id="node2" class="node">
<title>Koelcel</title>
<polygon fill="none" stroke="black" points="23.38,-72.12 23.38,-101.62 100.12,-101.62 100.12,-72.12 23.38,-72.12"/>
<text text-anchor="start" x="29.5" y="-82.42" font-family="Helvetica,sans-Serif" font-weight="bold" font-size="16.00">Koelcel</text>
<polygon fill="none" stroke="black" points="23.38,-44.88 23.38,-72.12 100.12,-72.12 100.12,-44.88 23.38,-44.88"/>
<text text-anchor="start" x="28.38" y="-54.83" font-family="Helvetica,sans-Serif" text-decoration="underline" font-size="14.00">id</text>
<polygon fill="none" stroke="black" points="23.38,-17.62 23.38,-44.88 100.12,-44.88 100.12,-17.62 23.38,-17.62"/>
<text text-anchor="start" x="28.38" y="-26.57" font-family="Helvetica,sans-Serif" font-size="14.00">capaciteit</text>
</g>
<!-- Koelcel&#45;&#45;HoeveelheidPerKoelcel -->
<g id="edge2" class="edge">
<title>Koelcel&#45;&#45;HoeveelheidPerKoelcel</title>
<path fill="none" stroke="#7f7f7f" stroke-dasharray="5,2" d="M108.04,-59.62C133.03,-59.62 165.29,-59.62 196.72,-59.62"/>
<text text-anchor="start" x="166.72" y="-46.33" font-family="Times,serif" font-size="14.00">0..N</text>
<text text-anchor="start" x="108.04" y="-46.33" font-family="Times,serif" font-size="14.00">1</text>
</g>
</g>
</svg>
