<?xml version="1.0" encoding="UTF-8" standalone="no"?>
<!DOCTYPE svg PUBLIC "-//W3C//DTD SVG 1.1//EN"
 "http://www.w3.org/Graphics/SVG/1.1/DTD/svg11.dtd">
<!-- Generated by graphviz version 9.0.0 (20230911.1827)
 -->
<!-- Pages: 1 -->
<svg width="843pt" height="451pt"
 viewBox="0.00 0.00 843.25 450.75" xmlns="http://www.w3.org/2000/svg" xmlns:xlink="http://www.w3.org/1999/xlink">
<g id="graph0" class="graph" transform="scale(1 1) rotate(0) translate(4 446.75)">
<polygon fill="white" stroke="none" points="-4,4 -4,-446.75 839.25,-446.75 839.25,4 -4,4"/>
<!-- Fruitsoort -->
<g id="node1" class="node">
<title>Fruitsoort</title>
<polygon fill="none" stroke="black" points="8,-347.88 8,-377.38 115.5,-377.38 115.5,-347.88 8,-347.88"/>
<text text-anchor="start" x="16.75" y="-358.18" font-family="Helvetica,sans-Serif" font-weight="bold" font-size="16.00">Fruitsoort</text>
<polygon fill="none" stroke="black" points="8,-320.62 8,-347.88 115.5,-347.88 115.5,-320.62 8,-320.62"/>
<text text-anchor="start" x="13" y="-330.57" font-family="Helvetica,sans-Serif" text-decoration="underline" font-size="14.00">id</text>
<polygon fill="none" stroke="black" points="8,-293.38 8,-320.62 115.5,-320.62 115.5,-293.38 8,-293.38"/>
<text text-anchor="start" x="13" y="-302.32" font-family="Helvetica,sans-Serif" font-size="14.00">naam</text>
<polygon fill="none" stroke="black" points="8,-266.12 8,-293.38 115.5,-293.38 115.5,-266.12 8,-266.12"/>
<text text-anchor="start" x="13" y="-275.07" font-family="Helvetica,sans-Serif" font-size="14.00">variëteit</text>
<polygon fill="none" stroke="black" points="8,-238.88 8,-266.12 115.5,-266.12 115.5,-238.88 8,-238.88"/>
<text text-anchor="start" x="13" y="-247.82" font-family="Helvetica,sans-Serif" font-size="14.00">prijsper100kg</text>
<polygon fill="none" stroke="black" points="8,-211.62 8,-238.88 115.5,-238.88 115.5,-211.62 8,-211.62"/>
<text text-anchor="start" x="13" y="-221.57" font-family="Helvetica,sans-Serif" font-style="italic" font-size="14.00">oogstplaats</text>
</g>
<!-- Oogstplaats -->
<g id="node4" class="node">
<title>Oogstplaats</title>
<polygon fill="none" stroke="black" points="253.25,-409.25 253.25,-438.75 371.25,-438.75 371.25,-409.25 253.25,-409.25"/>
<text text-anchor="start" x="258.25" y="-419.55" font-family="Helvetica,sans-Serif" font-weight="bold" font-size="16.00">Oogstplaats</text>
<polygon fill="none" stroke="black" points="253.25,-382 253.25,-409.25 371.25,-409.25 371.25,-382 253.25,-382"/>
<text text-anchor="start" x="258.25" y="-391.95" font-family="Helvetica,sans-Serif" text-decoration="underline" font-size="14.00">id</text>
<polygon fill="none" stroke="black" points="253.25,-354.75 253.25,-382 371.25,-382 371.25,-354.75 253.25,-354.75"/>
<text text-anchor="start" x="258.25" y="-363.7" font-family="Helvetica,sans-Serif" font-size="14.00">naam</text>
<polygon fill="none" stroke="black" points="253.25,-327.5 253.25,-354.75 371.25,-354.75 371.25,-327.5 253.25,-327.5"/>
<text text-anchor="start" x="258.25" y="-336.45" font-family="Helvetica,sans-Serif" font-size="14.00">geolocatie</text>
<polygon fill="none" stroke="black" points="253.25,-300.25 253.25,-327.5 371.25,-327.5 371.25,-300.25 253.25,-300.25"/>
<text text-anchor="start" x="258.25" y="-309.2" font-family="Helvetica,sans-Serif" font-size="14.00">grootte</text>
</g>
<!-- Fruitsoort&#45;&#45;Oogstplaats -->
<g id="edge5" class="edge">
<title>Fruitsoort&#45;&#45;Oogstplaats</title>
<path fill="none" stroke="#7f7f7f" stroke-dasharray="5,2" d="M123.22,-312.75C160.14,-323.89 207.37,-338.15 245.26,-349.58"/>
<text text-anchor="start" x="236.26" y="-353.53" font-family="Times,serif" font-size="14.00">1</text>
<text text-anchor="start" x="123.22" y="-299.45" font-family="Times,serif" font-size="14.00">1</text>
</g>
<!-- HoeveelheidPerKoelcel -->
<g id="node6" class="node">
<title>HoeveelheidPerKoelcel</title>
<polygon fill="none" stroke="black" points="204.5,-244.62 204.5,-274.12 420,-274.12 420,-244.62 204.5,-244.62"/>
<text text-anchor="start" x="209.5" y="-254.93" font-family="Helvetica,sans-Serif" font-weight="bold" font-size="16.00">HoeveelheidPerKoelcel</text>
<polygon fill="none" stroke="black" points="204.5,-217.38 204.5,-244.62 420,-244.62 420,-217.38 204.5,-217.38"/>
<text text-anchor="start" x="209.5" y="-227.32" font-family="Helvetica,sans-Serif" font-style="italic" text-decoration="underline" font-size="14.00">Koelcelid</text>
<polygon fill="none" stroke="black" points="204.5,-190.12 204.5,-217.38 420,-217.38 420,-190.12 204.5,-190.12"/>
<text text-anchor="start" x="209.5" y="-200.07" font-family="Helvetica,sans-Serif" font-style="italic" text-decoration="underline" font-size="14.00">Fruitsoortid</text>
<polygon fill="none" stroke="black" points="204.5,-162.88 204.5,-190.12 420,-190.12 420,-162.88 204.5,-162.88"/>
<text text-anchor="start" x="209.5" y="-171.82" font-family="Helvetica,sans-Serif" font-size="14.00">hoeveelheid</text>
</g>
<!-- Fruitsoort&#45;&#45;HoeveelheidPerKoelcel -->
<g id="edge2" class="edge">
<title>Fruitsoort&#45;&#45;HoeveelheidPerKoelcel</title>
<path fill="none" stroke="#7f7f7f" stroke-dasharray="5,2" d="M123.22,-276.01C145.49,-269.2 171.51,-261.24 196.96,-253.45"/>
<text text-anchor="start" x="166.96" y="-240.15" font-family="Times,serif" font-size="14.00">0..N</text>
<text text-anchor="start" x="123.22" y="-262.71" font-family="Times,serif" font-size="14.00">1</text>
</g>
<!-- Koelcel -->
<g id="node2" class="node">
<title>Koelcel</title>
<polygon fill="none" stroke="black" points="509,-244.62 509,-274.12 618,-274.12 618,-244.62 509,-244.62"/>
<text text-anchor="start" x="531.25" y="-254.93" font-family="Helvetica,sans-Serif" font-weight="bold" font-size="16.00">Koelcel</text>
<polygon fill="none" stroke="black" points="509,-217.38 509,-244.62 618,-244.62 618,-217.38 509,-217.38"/>
<text text-anchor="start" x="514" y="-227.32" font-family="Helvetica,sans-Serif" text-decoration="underline" font-size="14.00">id</text>
<polygon fill="none" stroke="black" points="509,-190.12 509,-217.38 618,-217.38 618,-190.12 509,-190.12"/>
<text text-anchor="start" x="514" y="-199.07" font-family="Helvetica,sans-Serif" font-size="14.00">capaciteit</text>
<polygon fill="none" stroke="black" points="509,-162.88 509,-190.12 618,-190.12 618,-162.88 509,-162.88"/>
<text text-anchor="start" x="514" y="-172.82" font-family="Helvetica,sans-Serif" font-style="italic" font-size="14.00">behandeldMet</text>
</g>
<!-- Behandeling -->
<g id="node5" class="node">
<title>Behandeling</title>
<polygon fill="none" stroke="black" points="707,-167.5 707,-197 827.25,-197 827.25,-167.5 707,-167.5"/>
<text text-anchor="start" x="712" y="-177.8" font-family="Helvetica,sans-Serif" font-weight="bold" font-size="16.00">Behandeling</text>
<polygon fill="none" stroke="black" points="707,-140.25 707,-167.5 827.25,-167.5 827.25,-140.25 707,-140.25"/>
<text text-anchor="start" x="712" y="-150.2" font-family="Helvetica,sans-Serif" text-decoration="underline" font-size="14.00">BehandelingsID</text>
<polygon fill="none" stroke="black" points="707,-113 707,-140.25 827.25,-140.25 827.25,-113 707,-113"/>
<text text-anchor="start" x="712" y="-122.95" font-family="Helvetica,sans-Serif" font-style="italic" text-decoration="underline" font-size="14.00">KoelcelId</text>
<polygon fill="none" stroke="black" points="707,-85.75 707,-113 827.25,-113 827.25,-85.75 707,-85.75"/>
<text text-anchor="start" x="712" y="-95.7" font-family="Helvetica,sans-Serif" font-style="italic" text-decoration="underline" font-size="14.00">ProductId</text>
<polygon fill="none" stroke="black" points="707,-58.5 707,-85.75 827.25,-85.75 827.25,-58.5 707,-58.5"/>
<text text-anchor="start" x="712" y="-67.45" font-family="Helvetica,sans-Serif" font-size="14.00">hoeveelheid</text>
<polygon fill="none" stroke="black" points="707,-31.25 707,-58.5 827.25,-58.5 827.25,-31.25 707,-31.25"/>
<text text-anchor="start" x="712" y="-40.2" font-family="Helvetica,sans-Serif" font-size="14.00">startdatum</text>
<polygon fill="none" stroke="black" points="707,-4 707,-31.25 827.25,-31.25 827.25,-4 707,-4"/>
<text text-anchor="start" x="712" y="-12.95" font-family="Helvetica,sans-Serif" font-size="14.00">einddatum</text>
</g>
<!-- Koelcel&#45;&#45;Behandeling -->
<g id="edge3" class="edge">
<title>Koelcel&#45;&#45;Behandeling</title>
<path fill="none" stroke="#7f7f7f" stroke-dasharray="5,2" d="M625.82,-182.62C648.99,-169.05 675.47,-153.56 699.13,-139.71"/>
<text text-anchor="start" x="669.13" y="-126.41" font-family="Times,serif" font-size="14.00">0..N</text>
<text text-anchor="start" x="625.82" y="-169.32" font-family="Times,serif" font-size="14.00">1</text>
</g>
<!-- Product -->
<g id="node3" class="node">
<title>Product</title>
<polygon fill="none" stroke="black" points="516.12,-107.62 516.12,-137.12 610.88,-137.12 610.88,-107.62 516.12,-107.62"/>
<text text-anchor="start" x="527.88" y="-117.92" font-family="Helvetica,sans-Serif" font-weight="bold" font-size="16.00">Product</text>
<polygon fill="none" stroke="black" points="516.12,-80.38 516.12,-107.62 610.88,-107.62 610.88,-80.38 516.12,-80.38"/>
<text text-anchor="start" x="521.12" y="-90.33" font-family="Helvetica,sans-Serif" text-decoration="underline" font-size="14.00">id</text>
<polygon fill="none" stroke="black" points="516.12,-53.12 516.12,-80.38 610.88,-80.38 610.88,-53.12 516.12,-53.12"/>
<text text-anchor="start" x="521.12" y="-62.08" font-family="Helvetica,sans-Serif" font-size="14.00">naam</text>
<polygon fill="none" stroke="black" points="516.12,-25.88 516.12,-53.12 610.88,-53.12 610.88,-25.88 516.12,-25.88"/>
<text text-anchor="start" x="521.12" y="-34.83" font-family="Helvetica,sans-Serif" font-size="14.00">beschrijving</text>
</g>
<!-- Product&#45;&#45;Behandeling -->
<g id="edge4" class="edge">
<title>Product&#45;&#45;Behandeling</title>
<path fill="none" stroke="#7f7f7f" stroke-dasharray="5,2" d="M618.8,-86.62C643.52,-88.95 673.03,-91.73 699.12,-94.19"/>
<text text-anchor="start" x="669.12" y="-80.89" font-family="Times,serif" font-size="14.00">0..N</text>
<text text-anchor="start" x="618.8" y="-73.32" font-family="Times,serif" font-size="14.00">1</text>
</g>
<!-- HoeveelheidPerKoelcel&#45;&#45;Koelcel -->
<g id="edge1" class="edge">
<title>HoeveelheidPerKoelcel&#45;&#45;Koelcel</title>
<path fill="none" stroke="#7f7f7f" stroke-dasharray="5,2" d="M427.66,-218.5C453,-218.5 478.91,-218.5 501.15,-218.5"/>
<text text-anchor="start" x="492.15" y="-205.2" font-family="Times,serif" font-size="14.00">1</text>
<text text-anchor="start" x="427.66" y="-205.2" font-family="Times,serif" font-size="14.00">0..N</text>
</g>
</g>
</svg>
