<?xml version="1.0" encoding="UTF-8" standalone="no"?>
<!DOCTYPE svg PUBLIC "-//W3C//DTD SVG 1.1//EN"
 "http://www.w3.org/Graphics/SVG/1.1/DTD/svg11.dtd">
<!-- Generated by graphviz version 9.0.0 (20230911.1827)
 -->
<!-- Pages: 1 -->
<svg width="436pt" height="484pt"
 viewBox="0.00 0.00 436.00 484.12" xmlns="http://www.w3.org/2000/svg" xmlns:xlink="http://www.w3.org/1999/xlink">
<g id="graph0" class="graph" transform="scale(1 1) rotate(0) translate(4 480.12)">
<polygon fill="white" stroke="none" points="-4,4 -4,-480.12 432,-480.12 432,4 -4,4"/>
<!-- Fruitsoort -->
<g id="node1" class="node">
<title>Fruitsoort</title>
<polygon fill="none" stroke="black" points="8,-437.25 8,-466.75 115.5,-466.75 115.5,-437.25 8,-437.25"/>
<text text-anchor="start" x="16.75" y="-447.55" font-family="Helvetica,sans-Serif" font-weight="bold" font-size="16.00">Fruitsoort</text>
<polygon fill="none" stroke="black" points="8,-410 8,-437.25 115.5,-437.25 115.5,-410 8,-410"/>
<text text-anchor="start" x="13" y="-419.95" font-family="Helvetica,sans-Serif" text-decoration="underline" font-size="14.00">id</text>
<polygon fill="none" stroke="black" points="8,-382.75 8,-410 115.5,-410 115.5,-382.75 8,-382.75"/>
<text text-anchor="start" x="13" y="-391.7" font-family="Helvetica,sans-Serif" font-size="14.00">naam</text>
<polygon fill="none" stroke="black" points="8,-355.5 8,-382.75 115.5,-382.75 115.5,-355.5 8,-355.5"/>
<text text-anchor="start" x="13" y="-364.45" font-family="Helvetica,sans-Serif" font-size="14.00">variëteit</text>
<polygon fill="none" stroke="black" points="8,-328.25 8,-355.5 115.5,-355.5 115.5,-328.25 8,-328.25"/>
<text text-anchor="start" x="13" y="-337.2" font-family="Helvetica,sans-Serif" font-size="14.00">prijsper100kg</text>
<polygon fill="none" stroke="black" points="8,-301 8,-328.25 115.5,-328.25 115.5,-301 8,-301"/>
<text text-anchor="start" x="13" y="-310.95" font-family="Helvetica,sans-Serif" font-style="italic" font-size="14.00">oogstplaats</text>
</g>
<!-- Oogstplaats -->
<g id="node4" class="node">
<title>Oogstplaats</title>
<polygon fill="none" stroke="black" points="228.12,-442.62 228.12,-472.12 396.38,-472.12 396.38,-442.62 228.12,-442.62"/>
<text text-anchor="start" x="258.25" y="-452.93" font-family="Helvetica,sans-Serif" font-weight="bold" font-size="16.00">Oogstplaats</text>
<polygon fill="none" stroke="black" points="228.12,-415.38 228.12,-442.62 396.38,-442.62 396.38,-415.38 228.12,-415.38"/>
<text text-anchor="start" x="233.12" y="-425.32" font-family="Helvetica,sans-Serif" text-decoration="underline" font-size="14.00">id</text>
<polygon fill="none" stroke="black" points="228.12,-388.12 228.12,-415.38 396.38,-415.38 396.38,-388.12 228.12,-388.12"/>
<text text-anchor="start" x="233.12" y="-397.07" font-family="Helvetica,sans-Serif" font-size="14.00">naam</text>
<polygon fill="none" stroke="black" points="228.12,-360.88 228.12,-388.12 396.38,-388.12 396.38,-360.88 228.12,-360.88"/>
<text text-anchor="start" x="233.12" y="-369.82" font-family="Helvetica,sans-Serif" font-size="14.00">geolocatie</text>
<polygon fill="none" stroke="black" points="228.12,-333.62 228.12,-360.88 396.38,-360.88 396.38,-333.62 228.12,-333.62"/>
<text text-anchor="start" x="233.12" y="-342.57" font-family="Helvetica,sans-Serif" font-size="14.00">oppervlakteInHectaren</text>
</g>
<!-- Fruitsoort&#45;&#45;Oogstplaats -->
<g id="edge3" class="edge">
<title>Fruitsoort&#45;&#45;Oogstplaats</title>
<path fill="none" stroke="#7f7f7f" stroke-dasharray="5,2" d="M123.22,-388.5C152.39,-390.73 187.98,-393.45 220.32,-395.92"/>
<text text-anchor="start" x="211.32" y="-382.62" font-family="Times,serif" font-size="14.00">1</text>
<text text-anchor="start" x="123.22" y="-375.2" font-family="Times,serif" font-size="14.00">0..N</text>
</g>
<!-- HoeveelheidPerKoelcel -->
<g id="node6" class="node">
<title>HoeveelheidPerKoelcel</title>
<polygon fill="none" stroke="black" points="204.5,-278 204.5,-307.5 420,-307.5 420,-278 204.5,-278"/>
<text text-anchor="start" x="209.5" y="-288.3" font-family="Helvetica,sans-Serif" font-weight="bold" font-size="16.00">HoeveelheidPerKoelcel</text>
<polygon fill="none" stroke="black" points="204.5,-250.75 204.5,-278 420,-278 420,-250.75 204.5,-250.75"/>
<text text-anchor="start" x="209.5" y="-260.7" font-family="Helvetica,sans-Serif" font-style="italic" text-decoration="underline" font-size="14.00">FruitID</text>
<polygon fill="none" stroke="black" points="204.5,-223.5 204.5,-250.75 420,-250.75 420,-223.5 204.5,-223.5"/>
<text text-anchor="start" x="209.5" y="-233.45" font-family="Helvetica,sans-Serif" font-style="italic" text-decoration="underline" font-size="14.00">KoelcelID</text>
<polygon fill="none" stroke="black" points="204.5,-196.25 204.5,-223.5 420,-223.5 420,-196.25 204.5,-196.25"/>
<text text-anchor="start" x="209.5" y="-205.2" font-family="Helvetica,sans-Serif" font-size="14.00">hoeveelheid</text>
</g>
<!-- Fruitsoort&#45;&#45;HoeveelheidPerKoelcel -->
<g id="edge5" class="edge">
<title>Fruitsoort&#45;&#45;HoeveelheidPerKoelcel</title>
<path fill="none" stroke="#7f7f7f" stroke-dasharray="5,2" d="M123.22,-351.75C146.21,-339.54 173.19,-325.21 199.43,-311.27"/>
<text text-anchor="start" x="169.43" y="-315.22" font-family="Times,serif" font-size="14.00">0..N</text>
<text text-anchor="start" x="123.22" y="-338.45" font-family="Times,serif" font-size="14.00">1</text>
</g>
<!-- Koelcel -->
<g id="node2" class="node">
<title>Koelcel</title>
<polygon fill="none" stroke="black" points="23.38,-229.38 23.38,-258.88 100.12,-258.88 100.12,-229.38 23.38,-229.38"/>
<text text-anchor="start" x="29.5" y="-239.68" font-family="Helvetica,sans-Serif" font-weight="bold" font-size="16.00">Koelcel</text>
<polygon fill="none" stroke="black" points="23.38,-202.12 23.38,-229.38 100.12,-229.38 100.12,-202.12 23.38,-202.12"/>
<text text-anchor="start" x="28.38" y="-212.07" font-family="Helvetica,sans-Serif" text-decoration="underline" font-size="14.00">id</text>
<polygon fill="none" stroke="black" points="23.38,-174.88 23.38,-202.12 100.12,-202.12 100.12,-174.88 23.38,-174.88"/>
<text text-anchor="start" x="28.38" y="-183.82" font-family="Helvetica,sans-Serif" font-size="14.00">capaciteit</text>
</g>
<!-- Behandeling -->
<g id="node5" class="node">
<title>Behandeling</title>
<polygon fill="none" stroke="black" points="252.12,-140.25 252.12,-169.75 372.38,-169.75 372.38,-140.25 252.12,-140.25"/>
<text text-anchor="start" x="257.12" y="-150.55" font-family="Helvetica,sans-Serif" font-weight="bold" font-size="16.00">Behandeling</text>
<polygon fill="none" stroke="black" points="252.12,-113 252.12,-140.25 372.38,-140.25 372.38,-113 252.12,-113"/>
<text text-anchor="start" x="257.12" y="-122.95" font-family="Helvetica,sans-Serif" font-style="italic" text-decoration="underline" font-size="14.00">KoelcelId</text>
<polygon fill="none" stroke="black" points="252.12,-85.75 252.12,-113 372.38,-113 372.38,-85.75 252.12,-85.75"/>
<text text-anchor="start" x="257.12" y="-95.7" font-family="Helvetica,sans-Serif" font-style="italic" text-decoration="underline" font-size="14.00">ProductId</text>
<polygon fill="none" stroke="black" points="252.12,-58.5 252.12,-85.75 372.38,-85.75 372.38,-58.5 252.12,-58.5"/>
<text text-anchor="start" x="257.12" y="-67.45" font-family="Helvetica,sans-Serif" font-size="14.00">hoeveelheid</text>
<polygon fill="none" stroke="black" points="252.12,-31.25 252.12,-58.5 372.38,-58.5 372.38,-31.25 252.12,-31.25"/>
<text text-anchor="start" x="257.12" y="-40.2" font-family="Helvetica,sans-Serif" font-size="14.00">startdatum</text>
<polygon fill="none" stroke="black" points="252.12,-4 252.12,-31.25 372.38,-31.25 372.38,-4 252.12,-4"/>
<text text-anchor="start" x="257.12" y="-12.95" font-family="Helvetica,sans-Serif" font-size="14.00">einddatum</text>
</g>
<!-- Koelcel&#45;&#45;Behandeling -->
<g id="edge1" class="edge">
<title>Koelcel&#45;&#45;Behandeling</title>
<path fill="none" stroke="#7f7f7f" stroke-dasharray="5,2" d="M108.04,-193.18C146.12,-173.26 201.09,-144.5 244.26,-121.92"/>
<text text-anchor="start" x="214.26" y="-108.62" font-family="Times,serif" font-size="14.00">0..N</text>
<text text-anchor="start" x="108.04" y="-179.88" font-family="Times,serif" font-size="14.00">1</text>
</g>
<!-- Koelcel&#45;&#45;HoeveelheidPerKoelcel -->
<g id="edge4" class="edge">
<title>Koelcel&#45;&#45;HoeveelheidPerKoelcel</title>
<path fill="none" stroke="#7f7f7f" stroke-dasharray="5,2" d="M108.04,-223.25C133.03,-226.77 165.29,-231.32 196.72,-235.74"/>
<text text-anchor="start" x="166.72" y="-222.44" font-family="Times,serif" font-size="14.00">0..N</text>
<text text-anchor="start" x="108.04" y="-209.95" font-family="Times,serif" font-size="14.00">1</text>
</g>
<!-- Product -->
<g id="node3" class="node">
<title>Product</title>
<polygon fill="none" stroke="black" points="14.38,-113 14.38,-142.5 109.12,-142.5 109.12,-113 14.38,-113"/>
<text text-anchor="start" x="26.12" y="-123.3" font-family="Helvetica,sans-Serif" font-weight="bold" font-size="16.00">Product</text>
<polygon fill="none" stroke="black" points="14.38,-85.75 14.38,-113 109.12,-113 109.12,-85.75 14.38,-85.75"/>
<text text-anchor="start" x="19.38" y="-95.7" font-family="Helvetica,sans-Serif" text-decoration="underline" font-size="14.00">id</text>
<polygon fill="none" stroke="black" points="14.38,-58.5 14.38,-85.75 109.12,-85.75 109.12,-58.5 14.38,-58.5"/>
<text text-anchor="start" x="19.38" y="-67.45" font-family="Helvetica,sans-Serif" font-size="14.00">naam</text>
<polygon fill="none" stroke="black" points="14.38,-31.25 14.38,-58.5 109.12,-58.5 109.12,-31.25 14.38,-31.25"/>
<text text-anchor="start" x="19.38" y="-40.2" font-family="Helvetica,sans-Serif" font-size="14.00">beschrijving</text>
</g>
<!-- Product&#45;&#45;Behandeling -->
<g id="edge2" class="edge">
<title>Product&#45;&#45;Behandeling</title>
<path fill="none" stroke="#7f7f7f" stroke-dasharray="5,2" d="M116.98,-86.88C154.39,-86.88 204.39,-86.88 244.29,-86.88"/>
<text text-anchor="start" x="214.29" y="-73.58" font-family="Times,serif" font-size="14.00">0..N</text>
<text text-anchor="start" x="116.98" y="-73.58" font-family="Times,serif" font-size="14.00">1</text>
</g>
</g>
</svg>
