<?xml version="1.0" encoding="UTF-8" standalone="no"?>
<!DOCTYPE svg PUBLIC "-//W3C//DTD SVG 1.1//EN"
 "http://www.w3.org/Graphics/SVG/1.1/DTD/svg11.dtd">
<!-- Generated by graphviz version 9.0.0 (20230911.1827)
 -->
<!-- Pages: 1 -->
<svg width="598pt" height="410pt"
 viewBox="0.00 0.00 598.00 409.88" xmlns="http://www.w3.org/2000/svg" xmlns:xlink="http://www.w3.org/1999/xlink">
<g id="graph0" class="graph" transform="scale(1 1) rotate(0) translate(4 405.88)">
<polygon fill="white" stroke="none" points="-4,4 -4,-405.88 594,-405.88 594,4 -4,4"/>
<!-- Fruitsoort -->
<g id="node1" class="node">
<title>Fruitsoort</title>
<polygon fill="none" stroke="black" points="8,-291.25 8,-320.75 115.5,-320.75 115.5,-291.25 8,-291.25"/>
<text text-anchor="start" x="16.75" y="-301.55" font-family="Helvetica,sans-Serif" font-weight="bold" font-size="16.00">Fruitsoort</text>
<polygon fill="none" stroke="black" points="8,-264 8,-291.25 115.5,-291.25 115.5,-264 8,-264"/>
<text text-anchor="start" x="13" y="-273.95" font-family="Helvetica,sans-Serif" text-decoration="underline" font-size="14.00">id</text>
<polygon fill="none" stroke="black" points="8,-236.75 8,-264 115.5,-264 115.5,-236.75 8,-236.75"/>
<text text-anchor="start" x="13" y="-245.7" font-family="Helvetica,sans-Serif" font-size="14.00">naam</text>
<polygon fill="none" stroke="black" points="8,-209.5 8,-236.75 115.5,-236.75 115.5,-209.5 8,-209.5"/>
<text text-anchor="start" x="13" y="-218.45" font-family="Helvetica,sans-Serif" font-size="14.00">variëteit</text>
<polygon fill="none" stroke="black" points="8,-182.25 8,-209.5 115.5,-209.5 115.5,-182.25 8,-182.25"/>
<text text-anchor="start" x="13" y="-191.2" font-family="Helvetica,sans-Serif" font-size="14.00">prijsper100kg</text>
<polygon fill="none" stroke="black" points="8,-155 8,-182.25 115.5,-182.25 115.5,-155 8,-155"/>
<text text-anchor="start" x="13" y="-164.95" font-family="Helvetica,sans-Serif" font-style="italic" font-size="14.00">oogstplaats</text>
</g>
<!-- Koelcel -->
<g id="node2" class="node">
<title>Koelcel</title>
<polygon fill="none" stroke="black" points="250.25,-368.38 250.25,-397.88 327,-397.88 327,-368.38 250.25,-368.38"/>
<text text-anchor="start" x="256.38" y="-378.68" font-family="Helvetica,sans-Serif" font-weight="bold" font-size="16.00">Koelcel</text>
<polygon fill="none" stroke="black" points="250.25,-341.12 250.25,-368.38 327,-368.38 327,-341.12 250.25,-341.12"/>
<text text-anchor="start" x="255.25" y="-351.07" font-family="Helvetica,sans-Serif" text-decoration="underline" font-size="14.00">id</text>
<polygon fill="none" stroke="black" points="250.25,-313.88 250.25,-341.12 327,-341.12 327,-313.88 250.25,-313.88"/>
<text text-anchor="start" x="255.25" y="-322.82" font-family="Helvetica,sans-Serif" font-size="14.00">capaciteit</text>
</g>
<!-- Fruitsoort&#45;&#45;Koelcel -->
<g id="edge1" class="edge">
<title>Fruitsoort&#45;&#45;Koelcel</title>
<path fill="none" stroke="#7f7f7f" stroke-dasharray="5,2" d="M123.31,-269.65C160.77,-289.31 208.08,-314.14 242.3,-332.09"/>
<text text-anchor="start" x="212.3" y="-318.79" font-family="Times,serif" font-size="14.00">1..N</text>
<text text-anchor="start" x="123.31" y="-256.35" font-family="Times,serif" font-size="14.00">0..N</text>
</g>
<!-- Oogstplaats -->
<g id="node4" class="node">
<title>Oogstplaats</title>
<polygon fill="none" stroke="black" points="204.5,-258.62 204.5,-288.12 372.75,-288.12 372.75,-258.62 204.5,-258.62"/>
<text text-anchor="start" x="234.62" y="-268.93" font-family="Helvetica,sans-Serif" font-weight="bold" font-size="16.00">Oogstplaats</text>
<polygon fill="none" stroke="black" points="204.5,-231.38 204.5,-258.62 372.75,-258.62 372.75,-231.38 204.5,-231.38"/>
<text text-anchor="start" x="209.5" y="-241.32" font-family="Helvetica,sans-Serif" text-decoration="underline" font-size="14.00">id</text>
<polygon fill="none" stroke="black" points="204.5,-204.12 204.5,-231.38 372.75,-231.38 372.75,-204.12 204.5,-204.12"/>
<text text-anchor="start" x="209.5" y="-213.07" font-family="Helvetica,sans-Serif" font-size="14.00">naam</text>
<polygon fill="none" stroke="black" points="204.5,-176.88 204.5,-204.12 372.75,-204.12 372.75,-176.88 204.5,-176.88"/>
<text text-anchor="start" x="209.5" y="-185.82" font-family="Helvetica,sans-Serif" font-size="14.00">geolocatie</text>
<polygon fill="none" stroke="black" points="204.5,-149.62 204.5,-176.88 372.75,-176.88 372.75,-149.62 204.5,-149.62"/>
<text text-anchor="start" x="209.5" y="-158.57" font-family="Helvetica,sans-Serif" font-size="14.00">oppervlakteInHectaren</text>
</g>
<!-- Fruitsoort&#45;&#45;Oogstplaats -->
<g id="edge4" class="edge">
<title>Fruitsoort&#45;&#45;Oogstplaats</title>
<path fill="none" stroke="#7f7f7f" stroke-dasharray="5,2" d="M123.31,-232.76C145.81,-230.86 171.87,-228.66 196.51,-226.57"/>
<text text-anchor="start" x="187.51" y="-213.27" font-family="Times,serif" font-size="14.00">1</text>
<text text-anchor="start" x="123.31" y="-219.46" font-family="Times,serif" font-size="14.00">0..N</text>
</g>
<!-- Behandeling -->
<g id="node5" class="node">
<title>Behandeling</title>
<polygon fill="none" stroke="black" points="461.75,-140.25 461.75,-169.75 582,-169.75 582,-140.25 461.75,-140.25"/>
<text text-anchor="start" x="466.75" y="-150.55" font-family="Helvetica,sans-Serif" font-weight="bold" font-size="16.00">Behandeling</text>
<polygon fill="none" stroke="black" points="461.75,-113 461.75,-140.25 582,-140.25 582,-113 461.75,-113"/>
<text text-anchor="start" x="466.75" y="-122.95" font-family="Helvetica,sans-Serif" font-style="italic" text-decoration="underline" font-size="14.00">KoelcelId</text>
<polygon fill="none" stroke="black" points="461.75,-85.75 461.75,-113 582,-113 582,-85.75 461.75,-85.75"/>
<text text-anchor="start" x="466.75" y="-95.7" font-family="Helvetica,sans-Serif" font-style="italic" text-decoration="underline" font-size="14.00">ProductId</text>
<polygon fill="none" stroke="black" points="461.75,-58.5 461.75,-85.75 582,-85.75 582,-58.5 461.75,-58.5"/>
<text text-anchor="start" x="466.75" y="-67.45" font-family="Helvetica,sans-Serif" font-size="14.00">hoeveelheid</text>
<polygon fill="none" stroke="black" points="461.75,-31.25 461.75,-58.5 582,-58.5 582,-31.25 461.75,-31.25"/>
<text text-anchor="start" x="466.75" y="-40.2" font-family="Helvetica,sans-Serif" font-size="14.00">startdatum</text>
<polygon fill="none" stroke="black" points="461.75,-4 461.75,-31.25 582,-31.25 582,-4 461.75,-4"/>
<text text-anchor="start" x="466.75" y="-12.95" font-family="Helvetica,sans-Serif" font-size="14.00">einddatum</text>
</g>
<!-- Koelcel&#45;&#45;Behandeling -->
<g id="edge2" class="edge">
<title>Koelcel&#45;&#45;Behandeling</title>
<path fill="none" stroke="#7f7f7f" stroke-dasharray="5,2" d="M334.61,-334.05C350.29,-325.12 367.31,-313.83 380.75,-300.88 418.8,-264.2 451.75,-215.38 476.12,-173.63"/>
<text text-anchor="start" x="446.12" y="-177.58" font-family="Times,serif" font-size="14.00">0..N</text>
<text text-anchor="start" x="334.61" y="-320.75" font-family="Times,serif" font-size="14.00">1</text>
</g>
<!-- Product -->
<g id="node3" class="node">
<title>Product</title>
<polygon fill="none" stroke="black" points="241.25,-94 241.25,-123.5 336,-123.5 336,-94 241.25,-94"/>
<text text-anchor="start" x="253" y="-104.3" font-family="Helvetica,sans-Serif" font-weight="bold" font-size="16.00">Product</text>
<polygon fill="none" stroke="black" points="241.25,-66.75 241.25,-94 336,-94 336,-66.75 241.25,-66.75"/>
<text text-anchor="start" x="246.25" y="-76.7" font-family="Helvetica,sans-Serif" text-decoration="underline" font-size="14.00">id</text>
<polygon fill="none" stroke="black" points="241.25,-39.5 241.25,-66.75 336,-66.75 336,-39.5 241.25,-39.5"/>
<text text-anchor="start" x="246.25" y="-48.45" font-family="Helvetica,sans-Serif" font-size="14.00">naam</text>
<polygon fill="none" stroke="black" points="241.25,-12.25 241.25,-39.5 336,-39.5 336,-12.25 241.25,-12.25"/>
<text text-anchor="start" x="246.25" y="-21.2" font-family="Helvetica,sans-Serif" font-size="14.00">beschrijving</text>
</g>
<!-- Product&#45;&#45;Behandeling -->
<g id="edge3" class="edge">
<title>Product&#45;&#45;Behandeling</title>
<path fill="none" stroke="#7f7f7f" stroke-dasharray="5,2" d="M343.84,-72.33C376.68,-75.03 418.83,-78.49 453.77,-81.36"/>
<text text-anchor="start" x="423.77" y="-68.06" font-family="Times,serif" font-size="14.00">0..N</text>
<text text-anchor="start" x="343.84" y="-59.03" font-family="Times,serif" font-size="14.00">1</text>
</g>
</g>
</svg>
